<svg xmlns="http://www.w3.org/2000/svg" width="109.496" height="81" viewBox="0 0 109.496 81">
  <path id="Tracé_8" data-name="Tracé 8" d="M282.209,339.1l-26.25-35.343a2.633,2.633,0,0,0-4.222-.007L225.287,339.1a.753.753,0,0,1-1.2,0l-23.73-31.143a.754.754,0,0,0-1.354.458c.154,29.416,6.58,55.777,16.747,74.872a.755.755,0,0,0,1.055.289l35.59-21.368a2.634,2.634,0,0,1,2.711,0l35.591,21.368a.755.755,0,0,0,1.055-.289c10.166-19.1,16.593-45.456,16.747-74.872a.755.755,0,0,0-1.354-.458l-23.728,31.141A.753.753,0,0,1,282.209,339.1Z" transform="translate(-199 -302.691)" fill="#6bfdd7"/>
</svg>
